<svg width="101" height="16" viewBox="0 0 101 16" fill="none" xmlns="http://www.w3.org/2000/svg">
<path d="M100.077 16L99.1699 15.5207C62.5831 -3.75119 1.33952 12.6219 0.725298 12.7889L0 10.8325C10.5687 5.21666 30.4849 2.44755 59.137 2.54564C66.796 2.57725 74.0875 2.82271 80.29 3.12588C50.0491 0.317978 5.18426 4.33463 4.62645 4.3857L3.61195 4.47792L3.43292 2.37861L4.44742 2.28599C4.62135 2.26978 22.0339 0.695642 42.2937 0.173619C69.5576 -0.529977 88.7306 0.907299 99.264 4.4423L98.8562 6.49412C98.5429 6.46494 85.2243 5.22223 68.1374 4.80802C79.4464 5.97446 90.5738 8.62665 100.092 13.6434L101 14.1215L100.077 16Z" fill="#C0E914"/>
</svg>
