<svg width="170" height="16" viewBox="0 0 170 16" fill="none" xmlns="http://www.w3.org/2000/svg">
<path d="M14.1033 3.71177C14.1033 3.50556 14.0176 3.35559 13.8463 3.26186C13.6941 3.14938 13.4181 3.09315 13.0184 3.09315H3.76849V6.57996H9.36413C9.74478 6.57996 10.0398 6.5331 10.2491 6.43937C10.4585 6.32689 10.5632 6.05507 10.5632 5.6239H11.0771V10.0105H10.5632C10.5632 9.57938 10.4585 9.30756 10.2491 9.19508C10.0398 9.06385 9.74478 8.99824 9.36413 8.99824H3.76849V12.8787H13.3039C13.5894 12.8787 13.8178 12.8131 13.9891 12.6819C14.1794 12.5507 14.2746 12.3726 14.2746 12.1476H14.7885V16H14.2746C14.2746 15.7188 14.1794 15.5595 13.9891 15.522C13.8178 15.4845 13.5894 15.4657 13.3039 15.4657H0V14.9596C0.133229 14.9596 0.247426 14.9221 0.34259 14.8471C0.456787 14.7534 0.513885 14.6221 0.513885 14.4534V1.68717C0.513885 1.51845 0.456787 1.3966 0.34259 1.32162C0.247426 1.22788 0.133229 1.18102 0 1.18102V0.674868H13.0184C13.4181 0.674868 13.6941 0.618629 13.8463 0.506151C14.0176 0.374926 14.1033 0.206209 14.1033 0H14.6172V3.71177H14.1033Z" fill="white"/>
<path d="M26.7218 10.826L27.0073 10.9666C27.0073 11.1353 27.0454 11.2853 27.1215 11.4165C27.2547 11.6415 27.5117 11.8664 27.8923 12.0914C28.292 12.2976 28.7393 12.4851 29.2341 12.6538C29.748 12.8225 30.2809 12.9631 30.8329 13.0756C31.3848 13.1693 31.8797 13.2162 32.3174 13.2162C32.641 13.2162 33.0597 13.1974 33.5736 13.1599C34.0875 13.1037 34.5918 13.0006 35.0867 12.8506C35.5816 12.7006 36.0098 12.4944 36.3714 12.232C36.733 11.9695 36.9138 11.6227 36.9138 11.1916C36.9138 10.7604 36.7426 10.4417 36.4 10.2355C36.0764 10.0293 35.6387 9.87932 35.0867 9.78559C34.5538 9.69186 33.9352 9.63562 33.231 9.61687C32.5458 9.57938 31.8416 9.53251 31.1184 9.47627C30.3951 9.42003 29.6814 9.3263 28.9772 9.19508C28.292 9.06385 27.6734 8.84827 27.1215 8.54833C26.5886 8.22964 26.1508 7.80785 25.8082 7.28295C25.4847 6.73931 25.3229 6.03632 25.3229 5.17399C25.3229 4.59285 25.4561 4.02109 25.7226 3.4587C26.0081 2.89631 26.4363 2.39953 27.0073 1.96837C27.5783 1.5372 28.3015 1.19039 29.177 0.927943C30.0525 0.646749 31.0803 0.506151 32.2603 0.506151C33.2691 0.506151 34.1446 0.581136 34.8869 0.731106C35.6291 0.881077 36.2667 1.04042 36.7996 1.20914C37.3516 1.37786 37.8084 1.5372 38.17 1.68717C38.5507 1.83714 38.8647 1.91213 39.1121 1.91213C39.3786 1.91213 39.5689 1.85589 39.6831 1.74341L40.0257 1.96837L38.0558 5.4833L37.7703 5.37083C37.7323 5.10838 37.6561 4.89279 37.5419 4.72408C37.3897 4.49912 37.1327 4.28354 36.7711 4.07733C36.4285 3.85237 36.0193 3.65554 35.5435 3.48682C35.0677 3.3181 34.5538 3.18688 34.0018 3.09315C33.4499 2.98067 32.8979 2.92443 32.346 2.92443C31.9273 2.92443 31.4895 2.96192 31.0327 3.03691C30.595 3.09315 30.1953 3.18688 29.8337 3.3181C29.472 3.44933 29.1675 3.62742 28.9201 3.85237C28.6917 4.05858 28.5775 4.32103 28.5775 4.63972C28.5775 5.08963 28.7393 5.42706 29.0628 5.65202C29.4054 5.87698 29.8432 6.04569 30.3761 6.15817C30.928 6.27065 31.5466 6.34564 32.2318 6.38313C32.936 6.42062 33.6497 6.46749 34.373 6.52373C35.0962 6.57996 35.8004 6.68307 36.4856 6.83304C37.1898 6.96426 37.8084 7.18922 38.3413 7.50791C38.8933 7.80785 39.331 8.22027 39.6546 8.74517C39.9972 9.27006 40.1684 9.95431 40.1684 10.7979C40.1684 11.7727 39.902 12.5694 39.3691 13.188C38.8552 13.8067 38.2081 14.2941 37.4277 14.6503C36.6474 15.0064 35.8004 15.2501 34.8869 15.3814C33.9923 15.4938 33.1549 15.5501 32.3745 15.5501C31.2897 15.5501 30.3761 15.4938 29.6338 15.3814C28.9106 15.2501 28.3015 15.1002 27.8067 14.9315C27.3308 14.744 26.9502 14.5847 26.6647 14.4534C26.3792 14.3035 26.1318 14.2285 25.9224 14.2285C25.7892 14.2285 25.6655 14.3035 25.5513 14.4534L25.1516 14.2285L26.7218 10.826Z" fill="white"/>
<path d="M65.32 3.71177C65.32 3.50556 65.2344 3.35559 65.0631 3.26186C64.9108 3.14938 64.6349 3.09315 64.2352 3.09315H54.9852V6.57996H60.5809C60.9615 6.57996 61.2565 6.5331 61.4659 6.43937C61.6753 6.32689 61.7799 6.05507 61.7799 5.6239H62.2938V10.0105H61.7799C61.7799 9.57938 61.6753 9.30756 61.4659 9.19508C61.2565 9.06385 60.9615 8.99824 60.5809 8.99824H54.9852V12.8787H64.5207C64.8062 12.8787 65.0345 12.8131 65.2058 12.6819C65.3962 12.5507 65.4913 12.3726 65.4913 12.1476H66.0052V16H65.4913C65.4913 15.7188 65.3962 15.5595 65.2058 15.522C65.0345 15.4845 64.8062 15.4657 64.5207 15.4657H51.2168V14.9596C51.35 14.9596 51.4642 14.9221 51.5593 14.8471C51.6735 14.7534 51.7306 14.6221 51.7306 14.4534V1.68717C51.7306 1.51845 51.6735 1.3966 51.5593 1.32162C51.4642 1.22788 51.35 1.18102 51.2168 1.18102V0.674868H64.2352C64.6349 0.674868 64.9108 0.618629 65.0631 0.506151C65.2344 0.374926 65.32 0.206209 65.32 0H65.8339V3.71177H65.32Z" fill="white"/>
<path d="M85.4755 3.09315C84.7523 3.09315 84.029 3.20562 83.3058 3.43058C82.5825 3.65554 81.9259 3.9836 81.3359 4.41476C80.7649 4.82718 80.2986 5.34271 79.937 5.96133C79.5754 6.57996 79.3946 7.28295 79.3946 8.0703C79.3946 8.85764 79.5754 9.56063 79.937 10.1793C80.2986 10.7979 80.7649 11.3228 81.3359 11.754C81.9259 12.1664 82.5825 12.4851 83.3058 12.71C84.029 12.935 84.7523 13.0475 85.4755 13.0475C86.1988 13.0475 86.922 12.935 87.6453 12.71C88.3685 12.4851 89.0156 12.1664 89.5866 11.754C90.1766 11.3228 90.6524 10.7979 91.0141 10.1793C91.3757 9.56063 91.5565 8.85764 91.5565 8.0703C91.5565 7.28295 91.3757 6.57996 91.0141 5.96133C90.6524 5.34271 90.1766 4.82718 89.5866 4.41476C89.0156 3.9836 88.3685 3.65554 87.6453 3.43058C86.922 3.20562 86.1988 3.09315 85.4755 3.09315ZM85.4755 0.506151C86.5223 0.506151 87.5882 0.665495 88.673 0.984182C89.7579 1.28412 90.7476 1.74341 91.6421 2.36204C92.5367 2.98067 93.2694 3.76801 93.8404 4.72408C94.4114 5.66139 94.6969 6.7768 94.6969 8.0703C94.6969 9.3638 94.4114 10.4886 93.8404 11.4446C93.2694 12.382 92.5367 13.1599 91.6421 13.7786C90.7476 14.3972 89.7579 14.8471 88.673 15.1283C87.5882 15.4095 86.5223 15.5501 85.4755 15.5501C84.4287 15.5501 83.3629 15.4095 82.278 15.1283C81.1932 14.8471 80.2034 14.3972 79.3089 13.7786C78.4144 13.1599 77.6816 12.382 77.1106 11.4446C76.5396 10.4886 76.2541 9.3638 76.2541 8.0703C76.2541 6.7768 76.5396 5.66139 77.1106 4.72408C77.6816 3.76801 78.4144 2.98067 79.3089 2.36204C80.2034 1.74341 81.1932 1.28412 82.278 0.984182C83.3629 0.665495 84.4287 0.506151 85.4755 0.506151Z" fill="white"/>
<path d="M108.467 1.18102C108.181 1.18102 108.039 1.35911 108.039 1.71529C108.039 1.80902 108.048 1.9215 108.067 2.05272C108.105 2.18395 108.181 2.39953 108.295 2.69947L111.35 10.5167H111.407L114.434 2.58699C114.529 2.34329 114.586 2.1652 114.605 2.05272C114.643 1.9215 114.662 1.80902 114.662 1.71529C114.662 1.35911 114.538 1.18102 114.291 1.18102V0.674868H119.173V1.18102C119.039 1.18102 118.944 1.22788 118.887 1.32162C118.83 1.41535 118.802 1.51845 118.802 1.63093C118.802 1.81839 118.897 2.13708 119.087 2.58699L122.142 10.5167H122.199L125.282 2.41828C125.415 2.13708 125.482 1.88401 125.482 1.65905C125.482 1.54657 125.434 1.44347 125.339 1.34974C125.244 1.23726 125.13 1.18102 124.997 1.18102V0.674868H129.222V1.18102C129.013 1.18102 128.851 1.2935 128.737 1.51845C128.641 1.74341 128.527 2.0246 128.394 2.36204L124.283 13.1037C124.169 13.4036 124.064 13.6661 123.969 13.891C123.893 14.116 123.855 14.3035 123.855 14.4534C123.855 14.5847 123.902 14.7065 123.997 14.819C124.093 14.9127 124.226 14.9596 124.397 14.9596V15.4657H119.886V14.9596C120.001 14.9221 120.115 14.8658 120.229 14.7909C120.362 14.7159 120.429 14.6128 120.429 14.4815C120.429 14.3316 120.391 14.1629 120.315 13.9754C120.258 13.7879 120.153 13.5255 120.001 13.188L116.717 4.89279H116.66L113.548 13.0193C113.263 13.7504 113.12 14.2097 113.12 14.3972C113.12 14.6971 113.244 14.8846 113.491 14.9596V15.4657H109.066V14.9596C109.18 14.9596 109.295 14.9315 109.409 14.8752C109.523 14.819 109.58 14.7252 109.58 14.594C109.58 14.4441 109.542 14.2847 109.466 14.116C109.409 13.9473 109.342 13.7692 109.266 13.5817L104.698 1.96837C104.622 1.76216 104.536 1.59344 104.441 1.46221C104.365 1.31224 104.232 1.21851 104.042 1.18102V0.674868H108.467V1.18102Z" fill="white"/>
<path d="M139.052 14.9596C139.547 14.9596 139.795 14.7909 139.795 14.4534V1.68717C139.795 1.34974 139.547 1.18102 139.052 1.18102V0.674868H143.792V1.18102C143.297 1.18102 143.049 1.34974 143.049 1.68717V14.4534C143.049 14.7909 143.297 14.9596 143.792 14.9596V15.4657H139.052V14.9596Z" fill="white"/>
<path d="M169.315 3.71177C169.315 3.50556 169.229 3.35559 169.058 3.26186C168.906 3.14938 168.63 3.09315 168.23 3.09315H158.98V6.57996H164.576C164.956 6.57996 165.251 6.5331 165.461 6.43937C165.67 6.32689 165.775 6.05507 165.775 5.6239H166.289V10.0105H165.775C165.775 9.57938 165.67 9.30756 165.461 9.19508C165.251 9.06385 164.956 8.99824 164.576 8.99824H158.98V12.8787H168.515C168.801 12.8787 169.029 12.8131 169.201 12.6819C169.391 12.5507 169.486 12.3726 169.486 12.1476H170V16H169.486C169.486 15.7188 169.391 15.5595 169.201 15.522C169.029 15.4845 168.801 15.4657 168.515 15.4657H155.212V14.9596C155.345 14.9596 155.459 14.9221 155.554 14.8471C155.668 14.7534 155.725 14.6221 155.725 14.4534V1.68717C155.725 1.51845 155.668 1.3966 155.554 1.32162C155.459 1.22788 155.345 1.18102 155.212 1.18102V0.674868H168.23C168.63 0.674868 168.906 0.618629 169.058 0.506151C169.229 0.374926 169.315 0.206209 169.315 0H169.829V3.71177H169.315Z" fill="white"/>
</svg>
