<svg width="2355" height="275" viewBox="0 0 2355 275" fill="none" xmlns="http://www.w3.org/2000/svg">
<g clip-path="url(#clip0)">
<path fill-rule="evenodd" clip-rule="evenodd" d="M582.367 221.559C582.367 208.469 587.569 195.915 596.823 186.658C606.077 177.401 618.631 172.198 631.719 172.195H927.835C940.928 172.195 953.483 177.394 962.742 186.652C972.002 195.91 977.204 208.467 977.204 221.559C977.204 234.652 972.002 247.207 962.742 256.465C953.483 265.723 940.928 270.923 927.835 270.923H631.719C618.631 270.918 606.077 265.716 596.818 256.459C587.564 247.202 582.367 234.649 582.367 221.559Z" fill="#C0E914"/>
<path fill-rule="evenodd" clip-rule="evenodd" d="M198.827 9.99169C198.827 23.0839 204.027 35.6399 213.285 44.8975C222.544 54.1552 235.1 59.3552 248.193 59.3552H401.223C425.88 59.3856 450.284 54.364 472.925 44.5996C495.567 34.835 515.967 20.5353 532.868 2.582C549.77 20.5346 570.17 34.8339 592.812 44.5984C615.451 54.3629 639.855 59.385 664.511 59.3552H815.907C863.918 59.3552 909.958 40.2862 943.902 6.34155C977.852 -27.6031 996.921 -73.6422 996.921 -121.647C996.921 -134.74 991.718 -147.295 982.464 -156.553C973.205 -165.811 960.645 -171.012 947.552 -171.012C934.459 -171.012 921.905 -165.811 912.645 -156.553C903.386 -147.295 898.189 -134.74 898.189 -121.647C898.189 -99.8268 889.519 -78.9004 874.088 -63.4712C858.658 -48.0418 837.732 -39.3731 815.907 -39.3731H664.511C642.691 -39.3731 621.76 -48.0418 606.335 -63.4712C590.904 -78.9004 582.235 -99.8268 582.235 -121.647V-454.042C582.235 -501.174 563.509 -546.376 530.179 -579.706C496.85 -613.032 451.645 -631.755 404.51 -631.755V-533.025C425.46 -533.025 445.552 -524.704 460.367 -509.891C475.181 -495.079 483.502 -474.988 483.503 -454.039V-121.649C483.503 -99.8291 474.835 -78.9028 459.404 -63.4735C443.974 -48.0441 423.046 -39.3753 401.225 -39.3753H248.197C241.714 -39.3756 235.294 -38.0988 229.304 -35.618C223.314 -33.1372 217.87 -29.5017 213.285 -24.9175C208.701 -20.3333 205.066 -14.8904 202.586 -8.90077C200.105 -2.9112 198.826 3.50864 198.827 9.99169Z" fill="#173EFF"/>
<path fill-rule="evenodd" clip-rule="evenodd" d="M246.766 59.3536C237.001 59.3565 227.455 56.4627 219.335 51.0401C211.215 45.6175 204.886 37.9091 201.147 28.8891C197.409 19.8692 196.429 9.94308 198.333 0.366385C200.236 -9.21027 204.937 -18.0073 211.84 -24.9124C218.744 -31.8176 227.54 -36.5203 237.117 -38.4262C246.693 -40.332 256.619 -39.3555 265.641 -35.6196C274.662 -31.8837 282.374 -25.5563 287.799 -17.438C293.225 -9.31981 296.12 0.224957 296.12 9.98891C296.12 23.0788 290.919 35.633 281.664 44.8903C272.409 54.1475 259.856 59.3502 246.766 59.3536Z" fill="#2D1DB2"/>
<path fill-rule="evenodd" clip-rule="evenodd" d="M1080.12 76.281C1070.36 76.2839 1060.81 73.3912 1052.69 67.9686C1044.57 62.5459 1038.24 54.8375 1034.5 45.8176C1030.76 36.7976 1029.78 26.8715 1031.69 17.2948C1033.59 7.71812 1038.29 -1.07889 1045.2 -7.98404C1052.1 -14.8892 1060.9 -19.5919 1070.47 -21.4978C1080.05 -23.4036 1089.97 -22.4271 1098.99 -18.6912C1108.01 -14.9553 1115.73 -8.62788 1121.15 -0.509617C1126.58 7.60864 1129.47 17.1534 1129.47 26.9174C1129.47 40.0072 1124.28 52.5604 1115.02 61.8177C1105.76 71.0749 1093.21 76.2776 1080.12 76.281Z" fill="#2D1DB2"/>
<path d="M1089.99 169.367C1150.21 169.36 1207.97 145.432 1250.54 102.848C1293.12 60.2627 1317.03 2.50989 1317.02 -57.7071C1317.02 -70.7954 1322.23 -83.3486 1331.48 -92.6041C1340.74 -101.859 1353.29 -107.058 1366.38 -107.058C1379.47 -107.058 1392.02 -101.859 1401.28 -92.6041C1410.53 -83.3486 1415.73 -70.7954 1415.73 -57.7071C1415.74 -14.9269 1407.32 27.4351 1390.95 66.9607C1374.59 106.487 1350.59 142.402 1320.35 172.656C1290.1 202.91 1254.19 226.91 1214.66 243.287C1175.14 259.663 1132.78 268.096 1090 268.101C1076.91 268.101 1064.35 262.9 1055.09 253.642C1045.83 244.384 1040.63 231.829 1040.63 218.737C1040.63 205.644 1045.83 193.088 1055.09 183.831C1064.35 174.573 1076.91 169.372 1090 169.372L1089.99 169.367Z" fill="#E5E0D5"/>
<path d="M2074.25 -232.604C2087.36 -232.586 2099.93 -227.363 2109.19 -218.083C2118.45 -208.803 2123.64 -196.225 2123.63 -183.116C2123.6 -161.268 2132.26 -140.303 2147.69 -124.834C2163.12 -109.365 2184.06 -100.656 2205.91 -100.627H2535.1C2545.92 -100.639 2556.63 -102.783 2566.62 -106.936C2576.61 -111.088 2585.69 -117.167 2593.33 -124.827C2600.97 -132.487 2607.03 -141.577 2611.16 -151.578C2615.29 -161.579 2617.41 -172.296 2617.4 -183.116C2617.4 -196.21 2622.59 -208.768 2631.85 -218.028C2641.11 -227.286 2653.67 -232.489 2666.77 -232.489C2679.86 -232.489 2692.42 -227.286 2701.68 -218.028C2710.94 -208.768 2716.15 -196.21 2716.15 -183.116C2716.17 -154.309 2709.34 -125.908 2696.22 -100.266C2683.09 -74.6236 2664.04 -52.4784 2640.65 -35.6622C2652.26 6.91241 2691.34 37.948 2739.2 37.948H2930.11C2943.24 37.948 2955.83 43.1623 2965.11 52.4438C2974.39 61.7254 2979.61 74.3141 2979.61 87.4402C2979.61 100.566 2974.39 113.154 2965.11 122.435C2955.83 131.716 2943.24 136.931 2930.11 136.931H2739.2C2649.89 136.931 2573.16 79.5678 2547.52 -2.062C2543.41 -1.78014 2539.26 -1.63976 2535.1 -1.64129H2205.92C2157.85 -1.69825 2111.76 -20.848 2077.81 -54.8783C2043.86 -88.9087 2024.82 -135.031 2024.88 -183.101C2024.86 -189.594 2026.14 -196.025 2028.61 -202.026C2031.09 -208.028 2034.73 -213.482 2039.31 -218.079C2043.89 -222.676 2049.34 -226.324 2055.34 -228.816C2061.33 -231.308 2067.76 -232.595 2074.25 -232.604Z" fill="#E5E0D5"/>
<path fill-rule="evenodd" clip-rule="evenodd" d="M2436.73 -133.742C2414.87 -133.742 2393.92 -125.063 2378.47 -109.614C2363.02 -94.1651 2354.34 -73.2107 2354.34 -51.3621C2354.34 -29.5137 2363.02 -8.56043 2378.47 6.88867C2393.92 22.3378 2414.87 31.017 2436.73 31.017C2449.84 31.017 2462.41 36.2244 2471.68 45.4949C2480.95 54.7654 2486.16 67.3395 2486.16 80.4496C2486.16 93.5602 2480.95 106.134 2471.68 115.405C2462.41 124.675 2449.84 129.883 2436.73 129.883C2388.77 129.712 2342.83 110.542 2308.98 76.5709C2275.12 42.5999 2256.12 -3.40155 2256.12 -51.3587C2256.12 -99.3156 2275.12 -145.319 2308.98 -179.29C2342.83 -213.261 2388.77 -232.431 2436.73 -232.601C2449.84 -232.601 2462.41 -227.393 2471.68 -218.123C2480.95 -208.853 2486.16 -196.281 2486.16 -183.171C2486.16 -170.061 2480.95 -157.488 2471.68 -148.218C2462.41 -138.948 2449.84 -133.74 2436.73 -133.74V-133.742Z" fill="#C0E914"/>
<path fill-rule="evenodd" clip-rule="evenodd" d="M2212.38 -407.31C2152.09 -407.268 2094.28 -383.276 2051.67 -340.612C2009.06 -297.948 1985.15 -240.105 1985.19 -179.811C1985.19 -131.785 1966.11 -85.7256 1932.15 -51.7664C1898.19 -17.8068 1852.13 1.27087 1804.1 1.27087C1756.07 1.27087 1710.01 -17.8068 1676.05 -51.7664C1642.09 -85.7256 1623.01 -131.785 1623.01 -179.811C1623.01 -192.909 1628.22 -205.47 1637.48 -214.732C1646.73 -223.994 1659.3 -229.197 1672.4 -229.197C1685.5 -229.197 1698.06 -223.994 1707.32 -214.732C1716.58 -205.47 1721.79 -192.909 1721.79 -179.811C1721.73 -168.965 1723.82 -158.216 1727.93 -148.179C1732.04 -138.143 1738.09 -129.017 1745.74 -121.328C1753.39 -113.639 1762.49 -107.538 1772.5 -103.374C1782.52 -99.2104 1793.25 -97.067 1804.1 -97.067C1814.95 -97.067 1825.69 -99.2104 1835.7 -103.374C1845.72 -107.538 1854.81 -113.639 1862.46 -121.328C1870.1 -129.017 1876.16 -138.143 1880.28 -148.179C1884.38 -158.216 1886.47 -168.965 1886.41 -179.811C1886.41 -360.08 2032.35 -506.225 2212.38 -506.225C2225.44 -506.136 2237.94 -500.886 2247.14 -491.621C2256.34 -482.356 2261.5 -469.827 2261.5 -456.768C2261.5 -443.709 2256.34 -431.179 2247.14 -421.914C2237.94 -412.649 2225.44 -407.399 2212.38 -407.31Z" fill="#C0E914"/>
<path fill-rule="evenodd" clip-rule="evenodd" d="M101.527 -57.7065C101.523 -27.8908 107.391 1.63387 118.798 29.1818C130.204 56.7298 146.927 81.762 168.008 102.848C189.089 123.934 214.115 140.661 241.661 152.074C269.207 163.488 298.733 169.364 328.55 169.367C341.643 169.367 354.199 174.569 363.458 183.827C372.716 193.084 377.916 205.64 377.916 218.732C377.916 231.824 372.716 244.38 363.458 253.638C354.199 262.896 341.643 268.097 328.55 268.097C242.149 268.084 159.292 233.751 98.2062 172.65C37.1203 111.549 2.80819 28.686 2.82032 -57.7111C2.82032 -70.8 8.02106 -83.3532 17.2765 -92.6081C26.532 -101.863 39.0857 -107.063 52.175 -107.063C65.2643 -107.063 77.8157 -101.863 87.0713 -92.6081C96.3268 -83.3532 101.527 -70.8 101.527 -57.7111V-57.7065Z" fill="#173EFF"/>
<path fill-rule="evenodd" clip-rule="evenodd" d="M533.017 221.56C533.014 211.8 530.116 202.259 524.692 194.145C519.267 186.031 511.558 179.708 502.54 175.975C493.522 172.242 483.6 171.267 474.027 173.173C464.454 175.079 455.662 179.779 448.761 186.682C441.86 193.584 437.161 202.378 435.258 211.95C433.355 221.523 434.332 231.446 438.068 240.462C441.804 249.479 448.129 257.186 456.245 262.608C464.361 268.03 473.904 270.924 483.664 270.924C496.755 270.92 509.307 265.718 518.562 256.46C527.818 247.203 533.017 234.65 533.017 221.56Z" fill="#2D1DB2"/>
<path fill-rule="evenodd" clip-rule="evenodd" d="M681.07 221.56C681.07 211.8 678.176 202.259 672.75 194.145C667.324 186.031 659.617 179.708 650.598 175.975C641.579 172.242 631.655 171.267 622.08 173.173C612.511 175.079 603.716 179.779 596.817 186.682C589.918 193.584 585.214 202.378 583.312 211.95C581.409 221.523 582.389 231.446 586.125 240.462C589.861 249.479 596.187 257.186 604.3 262.608C612.42 268.03 621.96 270.924 631.718 270.924C644.811 270.92 657.365 265.718 666.619 256.46C675.873 247.203 681.07 234.65 681.07 221.56Z" fill="#2D1DB2"/>
<path fill-rule="evenodd" clip-rule="evenodd" d="M1126.65 218.744C1126.65 208.984 1123.75 199.444 1118.33 191.33C1112.9 183.216 1105.19 176.892 1096.18 173.159C1087.16 169.426 1077.24 168.451 1067.66 170.357C1058.09 172.263 1049.3 176.964 1042.4 183.866C1035.5 190.769 1030.8 199.562 1028.89 209.135C1026.99 218.708 1027.97 228.63 1031.7 237.647C1035.44 246.664 1041.76 254.37 1049.88 259.792C1058 265.214 1067.54 268.109 1077.3 268.109C1090.39 268.106 1102.94 262.903 1112.2 253.646C1121.46 244.389 1126.65 231.834 1126.65 218.744Z" fill="#2D1DB2"/>
<path fill-rule="evenodd" clip-rule="evenodd" d="M1570.83 261.048C1564.35 261.054 1557.94 259.783 1551.95 257.31C1545.97 254.837 1540.53 251.21 1535.95 246.634C1531.36 242.059 1527.72 236.626 1525.24 230.645C1522.76 224.665 1521.48 218.253 1521.48 211.778V70.5404C1521.48 57.4521 1526.68 44.8987 1535.93 35.6437C1545.18 26.3886 1557.74 21.1893 1570.83 21.1893C1583.92 21.1893 1596.47 26.3886 1605.73 35.6437C1614.98 44.8987 1620.18 57.4521 1620.18 70.5404V211.778C1620.17 224.855 1614.96 237.392 1605.71 246.632C1596.45 255.871 1583.91 261.058 1570.83 261.048Z" fill="#173EFF"/>
<path fill-rule="evenodd" clip-rule="evenodd" d="M1807.73 221.559C1807.73 208.463 1812.94 195.904 1822.2 186.647C1831.46 177.389 1844.03 172.191 1857.12 172.195H2249.03C2262.12 172.195 2274.68 177.394 2283.94 186.652C2293.2 195.91 2298.4 208.467 2298.4 221.559C2298.4 234.652 2293.2 247.207 2283.94 256.465C2274.68 265.723 2262.12 270.923 2249.03 270.923H1857.12C1850.64 270.925 1844.22 269.649 1838.22 267.17C1832.23 264.69 1826.79 261.056 1822.2 256.472C1817.61 251.888 1813.97 246.445 1811.49 240.455C1809.01 234.465 1807.73 228.044 1807.73 221.559Z" fill="#C0E914"/>
<path fill-rule="evenodd" clip-rule="evenodd" d="M2261.77 270.921C2252.01 270.924 2242.46 268.031 2234.34 262.608C2226.23 257.186 2219.89 249.478 2216.15 240.458C2212.42 231.438 2211.44 221.511 2213.34 211.934C2215.24 202.358 2219.95 193.561 2226.85 186.656C2233.75 179.751 2242.55 175.048 2252.12 173.142C2261.7 171.236 2271.63 172.213 2280.65 175.948C2289.67 179.684 2297.38 186.012 2302.81 194.13C2308.23 202.249 2311.13 211.793 2311.13 221.557C2311.13 234.647 2305.93 247.2 2296.67 256.457C2287.42 265.715 2274.87 270.917 2261.77 270.921Z" fill="#2D1DB2"/>
</g>
<defs>
<clipPath id="clip0">
<rect width="2355" height="275" fill="white"/>
</clipPath>
</defs>
</svg>
